{"title":"Helix S01E05 HDTV x264 AAC [GWC].mp4","uid":9550553,"size":120383452,"categoryP":"video","categoryS":"tv_shows","magnet":"?xt=urn:btih:728b458748b288eefd3ae5c8cef623901e4f3639&amp;dn=Helix+S01E05+HDTV+x264+AAC+%5BGWC%5D.mp4&amp;tr=udp%3A%2F%2Ftracker.openbittorrent.com%3A80&amp;tr=udp%3A%2F%2Fopen.demonii.com%3A1337&amp;tr=udp%3A%2F%2Ftracker.coppersurfer.tk%3A6969&amp;tr=udp%3A%2F%2Fexodus.desync.com%3A6969","seeders":1,"leechers":1,"uploader":"canc232","files":1,"time":1391249089,"description":"Helix S01E05 HDTV x264 AAC [GWC]\n\n\n\nSCREENS : &lt;a href=&quot;\nhttp://imageshack.com/a/img713/1208/zvpn.jpg&quot; rel=&quot;nofollow&quot; target=&quot;_NEW&quot;&gt;\nhttp://imageshack.com/a/img713/1208/zvpn.jpg&lt;/a&gt; &lt;a href=&quot;\nhttp://imageshack.com/a/img854/3165/75fu.jpg&quot; rel=&quot;nofollow&quot; target=&quot;_NEW&quot;&gt;\nhttp://imageshack.com/a/img854/3165/75fu.jpg&lt;/a&gt; &lt;a href=&quot;\nhttp://imageshack.com/a/img208/6629/1djy.jpg&quot; rel=&quot;nofollow&quot; target=&quot;_NEW&quot;&gt;\nhttp://imageshack.com/a/img208/6629/1djy.jpg&lt;/a&gt;\n\n\n\nMEDIA INFO :\nGeneral \nFormat : MPEG-4 \nFormat profile : Base Media \nFile size : 115 MiB \nDuration : 42mn 53s \nOverall bit rate mode : Variable \nOverall bit rate : 374 Kbps \n\nVideo \nFormat : AVC \nFormat profile : &lt;a class=&quot;__cf_email__&quot; href=&quot;/cdn-cgi/l/email-protection&quot; data-cfemail=&quot;f2ba9b959ab2bec1dcc2&quot;&gt;[email&amp;#160;protected]&lt;/a&gt;&lt;script cf-hash='f9e31' type=&quot;text/javascript&quot;&gt;\n/* &lt;![CDATA[ */!function(){try{var t=&quot;currentScript&quot;in document?document.currentScript:function(){for(var t=document.getElementsByTagName(&quot;script&quot;),e=t.length;e--;)if(t[e].getAttribute(&quot;cf-hash&quot;))return t[e]}();if(t&amp;&amp;t.previousSibling){var e,r,n,i,c=t.previousSibling,a=c.getAttribute(&quot;data-cfemail&quot;);if(a){for(e=&quot;&quot;,r=parseInt(a.substr(0,2),16),n=2;a.length-n;n+=2)i=parseInt(a.substr(n,2),16)^r,e+=String.fromCharCode(i);e=document.createTextNode(e),c.parentNode.replaceChild(e,c)}}}catch(u){}}();/* ]]&gt; */&lt;/script&gt; \nFormat settings, CABAC : Yes \nFormat settings, ReFrames : 4 frames \nDuration : 42mn 53s \nBit rate : 311 Kbps \nMaximum bit rate : 1 231 Kbps \nWidth : 720 pixels \nHeight : 404 pixels \nDisplay aspect ratio : 16:9 \nFrame rate : 23.976 fps \nStream size : 95.4 MiB (83%) \nTitle : Helix S01E05 HDTV x264 AAC [GWC] \nWriting library : x264 core\n\nAudio \nFormat : AAC \nFormat profile : HE-AAC / LC \nDuration : 42mn 53s \nBit rate mode : Variable \nChannel(s) : 2 channels \nSampling rate : 48.0 KHz / 24.0 KHz \nStream size : 18.4 MiB (16%) \nLanguage : English ","torrent":{"xt":"urn:btih:728b458748b288eefd3ae5c8cef623901e4f3639","amp;dn":"Helix+S01E05+HDTV+x264+AAC+%5BGWC%5D.mp4","amp;tr":["udp%3A%2F%2Ftracker.openbittorrent.com%3A80","udp%3A%2F%2Fopen.demonii.com%3A1337","udp%3A%2F%2Ftracker.coppersurfer.tk%3A6969","udp%3A%2F%2Fexodus.desync.com%3A6969"],"infoHash":"728b458748b288eefd3ae5c8cef623901e4f3639","infoHashBuffer":{"type":"Buffer","data":[114,139,69,135,72,178,136,238,253,58,229,200,206,246,35,144,30,79,54,57]},"announce":[],"urlList":[]}}